<?xml version="1.0" encoding="utf-8"?>
<!-- Generator: Adobe Illustrator 25.4.8, SVG Export Plug-In . SVG Version: 6.00 Build 0)  -->
<svg version="1.1" id="Layer_1" xmlns="http://www.w3.org/2000/svg" xmlns:xlink="http://www.w3.org/1999/xlink" x="0px" y="0px"
	 viewBox="0 0 527.6 494" style="enable-background:new 0 0 527.6 494;" xml:space="preserve">
<style type="text/css">
	.st0{fill:#0076AD;}
	.st1{fill:#34808B;}
	.st2{fill:#65C9D7;}
	.st3{stroke:#000000;stroke-width:2.4364;}
	.st4{fill:#6D665B;}
	.st5{fill:#AF8976;}
	.st6{fill:#907161;}
	.st7{fill:#4A453D;}
	.st8{stroke:#000000;stroke-width:2.6857;}
	.st9{fill:#E4BE9D;}
	.st10{fill:#D3A984;}
	.st11{fill:#A07D6C;}
	.st12{fill:#7F6456;}
	.st13{fill:#0076AD;stroke:#000000;stroke-width:3.6545;stroke-linejoin:round;}
	.st14{fill:#87D2DE;}
	.st15{fill:none;stroke:#000000;stroke-width:1.2182;stroke-linejoin:round;}
	.st16{fill:#6D665B;stroke:#000000;stroke-width:1.2182;stroke-linejoin:round;}
	.st17{fill:#958F86;}
</style>
<g>
	<path class="st0" d="M315,326.6c23.1-51.2-35-159.4-35-159.4c-31.7-15.8-30-39.8-82.8-24.4c-58.5,17.1-136.4,14.6-177.9,24.4
		c0,0,37.8,11,32.9,41.4c-4.9,30.5-6.1,54.8,15.8,69.4c21.9,14.6,26.8,11,14.6,35.3c-12.2,24.4,23.1,46.3,45.1,54.8
		c21.9,8.5,32.4,22.5,30,37.1C155.3,419.9,291.9,377.7,315,326.6z"/>
	<path d="M199.2,137.4c-33.5,9.8-77.3,14.8-113.1,17.8c-16.1,1.3-40.8,0.9-67.9,7.3c-2.2,0.5-4.1,2.2-4.2,4.4
		c-0.1,2.2,0.4,3.7,2.2,4.4c8.7,3.1,34.4,12.6,30.9,34c-2.3,14.7-7.5,45.9,1.1,63.1c8.9,17.6,33.1,20.1,36.6,26.1
		c4.1,6.8-13.8,22.5-8.9,41.3c4.8,18.1,34.7,30,53,37.1c17.8,6.9,25.1,15.5,22.5,31.3c-0.5,2.7-2.8,10.3,4.9,12.9
		c11.2,3.7,49.9-7.7,81-22.3c25.8-12.1,68.9-37.2,82-66.1c23.7-52.4-32.6-157.6-34.9-163.2c-0.4-1.1-1.3-2-2.3-2.6
		c-8.9-4.5-10.6-6.5-16.4-11.4C251.9,139.7,238.8,125.8,199.2,137.4z"/>
</g>
<path class="st1" d="M315,326.6c23.1-51.2-35-159.4-35-159.4c-31.7-15.8-30-39.8-82.8-24.4c-58.5,17.1-136.4,14.6-177.9,24.4
	c0,0,37.8,11,32.9,41.4c-4.9,30.5-6.1,54.8,15.8,69.4c21.9,14.6,26.8,11,14.6,35.3c-12.2,24.4,23.1,46.3,45.1,54.8
	c21.9,8.5,32.4,22.5,30,37.1C155.3,419.9,291.9,377.7,315,326.6z"/>
<g>
	<path class="st0" d="M374.4,137.2c18.3,2.4,37.8,54.8,12.2,93.8c-25.6,39-71.9-71.9-65.8-84.1C326.9,134.7,374.4,137.2,374.4,137.2
		z"/>
	<path d="M316.5,144.7c-4.9,9.7,9,41.2,11.8,47.4c5.3,11.6,19.2,39.6,35.3,48.8c10.3,5.9,21.2,6.1,28.2-4.5
		c17.3-26.4,14.4-62.3,4.8-83.3c-5.6-12.2-13.4-19.8-21.4-20.9l-0.2,0l-0.2,0C362.8,131.7,323.5,130.8,316.5,144.7z"/>
</g>
<path class="st1" d="M374.4,137.2c18.3,2.4,37.8,54.8,12.2,93.8c-25.6,39-71.9-71.9-65.8-84.1C326.9,134.7,374.4,137.2,374.4,137.2z
	"/>
<path class="st2" d="M243,151.9c-3.7-2.6-20-10.5-43.8-9.6c-0.7,0.2-1.3,0.4-2,0.6c-58.5,17.1-136.4,14.6-177.9,24.4
	c0,0,37.8,11,32.9,41.4c-2.7,16.6-4.2,31.3-1.6,43.7c0,0,0,0,0,0c12.5-33.8,106.7-76,164-87.6C225.9,162.5,235.6,156.7,243,151.9z"
	/>
<g>
	<path class="st2" d="M80.3,321.5c25.7-24,67.8-35.2,84-44.1c18.2-10,73.8-61.3,76.2-63.8c-0.7,0.7-5.1,4.8-17.8,4.8
		c-13.1,0-107.2,64.6-136.8,71.3c5.2,4.5,4.1,9-3.3,23.8C81.3,316.1,80.6,318.8,80.3,321.5z"/>
	<path class="st2" d="M240.6,213.6c0.1-0.1,0.1-0.1,0.1-0.1S240.6,213.5,240.6,213.6z"/>
</g>
<path class="st2" d="M280.1,167.2c-24.5-12.3-54.7-17.5-54.4-11.5c0.8,18.3-8.3,44-17.9,71.2c-11.1,31.3-23.6,66.7-23.6,97.9
	c0,12.7,2,24.2,5.6,34.7c-9.2-3.8-18.8-8.4-28.3-13.1c-30.4-14.8-61.7-30.1-79.4-14.1c6.6,16.2,29.7,29.6,45.7,35.8
	c18.9,7.4,31.5,10.4,30.7,29.5c4.8,0.7,9.7,1.1,14.6,1.3c12.6,0.4,18.7,5.9,27,4.6c10.3-3.7,21.6-8.4,32.9-13.7c3-1.5,7-3.3,9.3-4.5
	c0,0,0,0,0,0c32.1-16.1,62.9-37.2,72.7-58.8C338.2,275.4,280.1,167.2,280.1,167.2z"/>
<path class="st2" d="M242.5,160.6c-4.1-2.4-15.8-13.8-32.5-3.7c-16.6,10.2-44.3,37-46.2,39.3c-1.9,2.3-6.6,4.5-1.8,13.5
	c4.9,8.9,31.8,39,31.8,39s-15.6,7.5-18.4,13.4c0,0,4.9,2.2,5.7,5.4c2.3-0.3,5-1.7,9.1,1.9c0,0,16-12.1,14.8-21.9
	C203.9,237.8,188,205,188,205s44-6.7,48.1-17.7L242.5,160.6z"/>
<g>
	<path class="st3" d="M356.8,149.7c-1.6,0.3-3.2,0.5-3.7,0.4c-0.4,0-0.7,0.1-1,0.3c-0.2,0.2-0.4,0.6-0.4,0.9c0,0,0,0,0,0.1l1.9,30.5
		c0,0.5,0.4,1,0.9,1.1c0,0,55.8,13.8,57.9,14.4c-1.5,9.4-10,51.3-10,55c0,4.5,0.9,8.6,3.3,11.3c3,3.3,7.9,4.1,14.6,2.3
		c9.7-2.7,15.9-7.1,18.3-13.2c3.2-8.1-1.5-16-1.7-16.3c-0.2-0.4-0.7-0.6-1.1-0.6c-0.4,0-0.8,0.3-1,0.7c-2.6,5.5-6.9,6.6-9.9,6.6
		c-4.2-0.1-7.5-2.2-8-3c0.4-2.3,8.3-13.1,13.9-22.1c5.9-9.4,12.2-18.6,12.6-22.8c0-0.3,0-0.5-0.1-0.8c-0.3-1.9-1.5-3.6-3.9-5.3
		l-9.5-6.7c-11.3-7.9-28.4-19.7-38.6-27.4C379.2,146.1,364.1,148.5,356.8,149.7z M352.8,152.5c0,0,0.1,0,0.2,0
		C352.9,152.6,352.9,152.6,352.8,152.5z M354.8,156.2c7-1.1,21.9-5.7,33.7,1.8c10.8,6.9,48.4,33.2,48.4,33.2c1.8,1.3,3,2.8,3.1,4
		c0.2,1.1,0.4,2-0.8,3.6c-0.3,0.3-25.6,38.1-25,41.7c0.3,2,4.3,4.3,8.5,4.9c3.3,0.5,9,0.2,12.9-5.7c0.7,1.7,1.5,4.2,1.5,7.1
		c0,1.6-0.3,3.3-0.9,5c-2.1,5.3-9,9.2-18.4,10.6c-5.8,0.9-10.6-1.9-13-4.5c-2-2.2-0.1-1.6-0.1-5.5c0-9.8,4.7-22.2,4.8-22.4
		c0-0.1,0.1-0.2,0.1-0.2l7.8-33.8c0.1-0.7-0.4-1.2-0.9-1.4c0,0-58.8-13.4-60.5-13.8C355.9,179.3,353.5,158.6,354.8,156.2z"/>
</g>
<g>
	<path class="st3" d="M220.1,154.6c-16.5,10.1-48.5,41.1-48.5,41.1c-1.4,1.4-3.2,3.2-3.2,6.5c0,1.9,0.6,4.3,2.3,7.3
		c4.4,8,26.4,32.8,31.7,38.8c-3.7,1.2-12.7,3.8-19.4,2.3c-0.6-0.1-1.1,0.2-1.4,0.7c-0.2,0.5-0.1,1.1,0.4,1.5c0.2,0.2,7,3.7,3,9
		c-0.2,0.3-0.2,0.6,0,0.9c0.1,0.3,0.3,0.6,0.6,0.7c2.8,0.4,4.6,1.4,5,4.6c0.1,0.6,0.3,1.9,2.6,0.7c3.3-1.7,3.9-0.8,6.9,1.9
		c0.4,0.4,1.1,0.4,1.6,0.1c0.6-0.5,16.2-12.1,16.2-22.2c0-0.4,0-0.8-0.1-1.2c-1.1-8.8-14.3-34.5-17.4-41c8.8-1.4,43.3-5.6,47.4-18.2
		c0-0.1,0.3-1.1-0.7-1.6c-0.6-0.3-1.3,0.1-1.6,0.7c-3.1,8.4-35.1,15.1-47.1,16.9c-0.4,0.1-0.7,0.3-0.9,0.6c-0.1,0.2-0.1,0.4-0.1,0.6
		c0,0.2,0,0.4,0.1,0.5c0.2,0.3,17.8,36,17.8,42.9c0.1,7.6-10.5,17.4-14.4,19.4c-3.4-2.7-6.1-2.1-8.1-1.7c0,0-0.2,0.1-0.2-0.1
		c-1.1-2.3-3.6-3.9-5-4.7c0.3-0.8,0.4-1.7,0.4-2.5c0-2.3-1-4.2-2.1-5.8c8.6,0.5,18.5-3.2,19-3.4c0.4-0.1,0.7-0.5,0.7-0.9
		c0.1-0.4,0-0.8-0.3-1.1c-0.3-0.3-26.8-30-31.6-38.7c-3.7-6.8-1.5-9,0.5-10.9l1.1-1.2c1.5-1.9,29-28.7,45.8-39
		c13.9-8.5,24.3-1.2,29.3,2.4l1.9,1.3c0.6,0.4,1.3,0.2,1.6-0.4c0.4-0.6,0.2-1.3-0.4-1.7l-1.8-1.2
		C246.5,154.6,235.4,145.2,220.1,154.6z"/>
</g>
<path class="st4" d="M325.8,397.8c0,0,1,23.9,1.3,28.8c0.3,6.7,3.1,9.6,6.3,11.7c1.9,1.3,4.9,5.3,6.8,6.7
	c4.9,3.6,11.5,10.6,12.1,23.5c0,0,13.2-11.6,27.2,0.4c0,0,5.5-10.2,16.9-7.6c0,0-4.8-19.8,13.1-17.7c0,0-29.9-11.8-47.1-18
	c0,0,11.5-19.3,8.8-35.5L325.8,397.8z"/>
<path class="st5" d="M353,151.3c3.3,0.4,22.9-6.2,37.5,4.7c14.6,11,43.7,30.8,48.2,34.1c4.5,3.2,4.1,6.1,1.6,9.3
	c-2.4,3.2-25.2,38.4-24.8,40.8c0.4,2.4,14.4,9.2,20.3-3.2c0,0,12.2,19.9-15.8,27.7c-28,7.7-11.5-35-11.5-35l5.4-33.2l-59-14.6
	L353,151.3z"/>
<g>
	<path class="st6" d="M436.4,238.3c-0.4-0.8-0.7-1.3-0.7-1.3c-0.3,0.6-0.6,1.2-1,1.7C435.4,238.7,435.9,238.5,436.4,238.3z"/>
	<path class="st6" d="M427.3,259.4c-28,7.7-13.2-30.5-13.2-30.5s6.2-16.1,10-31.4c0.1-1.3,0.6-3.2-1.6-4.1
		c-47.7-10.7-60.4-16.4-60.4-16.4s14.6-11.8,18.3-22.7c0.3-1-0.2-2.1-0.2-3.1c-12.2-3.4-24.6,0.6-27.2,0.2l1.9,30.5l59,14.6
		l-5.4,33.2c0,0-16.5,42.8,11.5,35c7.3-2,11.9-4.9,14.6-8C432.5,257.7,430.1,258.6,427.3,259.4z"/>
</g>
<path class="st4" d="M410.1,249.1c4.3-2.7,5.4-8.8,5.4-8.8c0.4,2.4,14.4,9.2,20.3-3.2c0,0,12.2,19.9-15.8,27.7
	c-12.7,3.5-16.5-6.7-16.6-15.3C403.4,249.4,405.8,251.9,410.1,249.1z"/>
<path class="st7" d="M435.8,237.1c-0.3,0.6-0.6,1.2-0.9,1.7c0.6,6.8-2.1,16.2-19.4,19.6c-5.4,1.1-8.9-0.1-11.3-2.5
	c1.7,6.4,6.2,11.5,15.7,8.9C448,257,435.8,237.1,435.8,237.1z"/>
<g>
	<path d="M356.8,149.7c-1.6,0.3-3.2,0.5-3.7,0.4c-0.4,0-0.7,0.1-1,0.3c-0.2,0.2-0.4,0.6-0.4,0.9c0,0,0,0,0,0.1l1.9,30.5
		c0,0.5,0.4,1,0.9,1.1c0,0,55.8,13.8,57.9,14.4c-1.5,9.4-10,51.3-10,55c0,4.5,0.9,8.6,3.3,11.3c3,3.3,7.9,4.1,14.6,2.3
		c9.7-2.7,15.9-7.1,18.3-13.2c3.2-8.1-1.5-16-1.7-16.3c-0.2-0.4-0.7-0.6-1.1-0.6c-0.4,0-0.8,0.3-1,0.7c-2.6,5.5-6.9,6.6-9.9,6.6
		c-4.2-0.1-7.5-2.2-8-3c0.4-2.3,8.3-13.1,13.9-22.1c5.9-9.4,12.2-18.6,12.6-22.8c0-0.3,0-0.5-0.1-0.8c-0.3-1.9-1.5-3.6-3.9-5.3
		l-9.5-6.7c-11.3-7.9-28.4-19.7-38.6-27.4C379.2,146.1,364.1,148.5,356.8,149.7z M352.8,152.5c0,0,0.1,0,0.2,0
		C352.9,152.6,352.9,152.6,352.8,152.5z M354.8,156.2c7-1.1,21.9-5.7,33.7,1.8c10.8,6.9,48.4,33.2,48.4,33.2c1.8,1.3,3,2.8,3.1,4
		c0.2,1.1,0.4,2-0.8,3.6c-0.3,0.3-25.6,38.1-25,41.7c0.3,2,4.3,4.3,8.5,4.9c3.3,0.5,9,0.2,12.9-5.7c0.7,1.7,1.5,4.2,1.5,7.1
		c0,1.6-0.3,3.3-0.9,5c-2.1,5.3-9,9.2-18.4,10.6c-5.8,0.9-10.6-1.9-13-4.5c-2-2.2-0.1-1.6-0.1-5.5c0-9.8,4.7-22.2,4.8-22.4
		c0-0.1,0.1-0.2,0.1-0.2l7.8-33.8c0.1-0.7-0.4-1.2-0.9-1.4c0,0-58.8-13.4-60.5-13.8C355.9,179.3,353.5,158.6,354.8,156.2z"/>
</g>
<path class="st5" d="M259.1,390.1c-17.7,10-23.1,30.5-80.8,28.5c-57.7-2-114.1-41.8-87.6-89.6s112.7,40.5,154.8,25.9L259.1,390.1z"
	/>
<path class="st6" d="M250.3,371c-12.3,13.6-16.4,40.5-71.6,38.6c-46-1.6-91.1-27.2-94.2-61.7c-3.2,38.2,45,67.3,94.2,69
	c57.7,2,63.2-18.6,80.8-28.5L250.3,371z"/>
<path class="st6" d="M244.5,357.5c-11.7,4.1-36.8-4.1-53.1-11.1c8.8,21.9,30,46.4,54.3,54.7c3.9-3.3,7.5-6.6,11.8-9.1L244.5,357.5z"
	/>
<g>
	<path class="st8" d="M89.5,328.4c-9.1,16.4-9.2,33-0.3,48.2c14.2,24.2,50.8,42.1,89.1,43.4c44.5,1.5,58.2-10.1,70.3-20.4
		c3.7-3.1,7.1-6,11.2-8.4c0.6-0.3,0.8-1,0.6-1.6l-13.6-35.2c-0.3-0.7-1-1-1.7-0.8c-17.6,6.1-44.2-6.8-69.8-19.4
		C140.8,317.5,105.2,300.1,89.5,328.4z M178.5,415.7c-37.4-1.3-72.5-21.5-85.3-41c-9.1-13.9-9.9-29.6-1.3-45.1
		c14.4-26,46.9-9.6,81.7,7.4c25.6,12.5,52.3,27,71,21.5c0.8,2,12.1,29.2,12.8,31c-3.9,2.3-8.6,2.5-12,5.5
		C233.7,405,221.9,417.2,178.5,415.7z"/>
</g>
<path class="st4" d="M256.1,395.3c0,0,3.1,21,10.7,31.4c-11.1-3.2-44.3-1.7-44.3-1.7s9.9,9-5.2,19c0,0,18.3,2.1,14.8,13.8
	c0,0,21.3-2.2,22.1,10.6c0,0,40.4-24.2,44.7-27.3c4.2-3.1,4.8-4.3,4.7-10.4c-0.1-6.1,0.8-22.6,2.5-32.5L256.1,395.3z"/>
<path class="st7" d="M306.1,398.2l-50-2.8c0,0,1.1,7.5,3.6,15.8c13.5,6.4,28.5,10.4,44,11.8C304.1,415.4,304.9,405.2,306.1,398.2z"
	/>
<g>
	<path class="st3" d="M255.2,394.5c-0.2,0.2-0.3,0.5-0.3,0.8c0,0.1,0,0.1,0,0.2c0.1,0.8,2.8,18.4,9.3,29.4
		c-13-2.3-40.5-1.1-41.8-1.1c-0.5,0-0.9,0.3-1.1,0.8c-0.2,0.5,0,1,0.3,1.3c0,0,3.1,2.9,2.8,6.9c-0.3,3.5-2.9,6.9-7.8,10.1
		c-0.4,0.3-0.6,0.8-0.5,1.3c0.1,0.5,0.5,0.9,1,0.9c0.1,0,9.9,1.2,13.1,6.2c1.1,1.7,1.4,3.7,0.7,6c-0.1,0.4,0,0.8,0.2,1.1
		c0.3,0.3,0.7,0.5,1.1,0.4c0.1,0,12.2-1.2,17.9,3.7c1.8,1.5,2.7,3.4,2.9,5.8c0,0.4,0.3,0.8,0.6,1c0.4,0.2,0.8,0.2,1.2,0
		c1.7-1,40.5-24.2,44.8-27.4c4.6-3.4,5.3-5,5.2-11.4c-0.1-6.4,0.9-22.7,2.5-32.3c0.1-0.3,0-0.7-0.2-1c-0.2-0.3-0.5-0.4-0.9-0.5
		l-50-2.8C255.8,394.1,255.4,394.2,255.2,394.5z M267.8,427.4c0.2-0.2,0.2-0.5,0.2-0.7c0-0.2-0.1-0.5-0.2-0.7
		c-6.2-8.6-9.4-24.5-10.2-29.4c2.8,0.2,44.7,2.5,47.1,2.7c-1.5,9.8-1.4,25.3-1.3,31.5c0.1,5.7-0.2,7.1-4.2,10
		c-3.7,2.7-36.8,21.3-44.1,25.7c-0.5-2.2-1.7-4.1-3.4-5.6c-5.3-4.4-14.5-4.5-18.2-4.3c0.1-0.6,0.3-1.1,0.2-1.7
		c0-1.7-0.5-3.3-1.5-4.7c-2.7-4.2-8.6-6-12.1-6.8c4.1-3.2,7.1-6.4,7.4-10.1c0-0.3,0-0.6,0-0.9c0-2.5-1.7-4.8-2.7-6.2
		c7.8-0.3,32.4-0.9,41.5,1.7C266.9,428.1,267.5,427.9,267.8,427.4z"/>
</g>
<path d="M254.7,394.3c0,0-0.3,38.1,23.1,40c-8.8-8.3-17-17.1-13.7-35.7L254.7,394.3z"/>
<path class="st7" d="M371.1,390.2l-45.4,7.6c0,0,0.7,17,1.1,25.3c14.8-1.1,28.7-4.4,41.2-10C370.5,406.5,372.4,398,371.1,390.2z"/>
<g>
	<path class="st3" d="M370.9,389l-45.4,7.7c-0.6,0.1-1,0.6-1,1.3l1.3,28.8c0.3,7.1,4.2,10.2,6.6,12.5c1.4,1.2,7.4,6.5,7.4,6.5
		c4.4,4.1,10.6,10.2,11.2,22.9c0,0.5,0.3,0.9,0.7,1.1c0.4,0.2,0.9,0.1,1.3-0.2c0.5-0.4,11.8-13,25.6,0.4c0.3,0.3,0.7,0.3,1,0.3
		c0.4-0.1,0.7-0.3,0.8-0.6c0.2-0.4,4.6-12,15.6-7c0.4,0.2,0.8,0,1.1-0.3c0.3-0.3,0.4-0.7,0.3-1.1c0-0.1-2.1-9,2-13.6
		c2-2.3,5.3-3.1,9.8-2.6c0.6,0.1,1.2-0.3,1.3-0.9c0-0.1,0-0.2,0-0.3c0-0.5-1.2-1.3-0.8-1.1c1.7,0.7-28.4-11.3-47.3-17.1
		c2.2-4.1,10.4-17.7,10.1-30.6c0-1.6-0.2-3.2-0.4-4.8c-0.1-0.3-0.2-0.6-0.5-0.8C371.6,389,371.2,388.9,370.9,389z M370,391.6
		c0.1,1.1,0.3,2.1,0.3,3.2c0.2,14.5-8.9,30.1-9,30.2c-0.1,0.2-0.2,0.4-0.2,0.6c0,0.1,0,0.3,0.1,0.4c0.1,0.3,0.4,0.6,0.7,0.7
		c12.5,4.5,32.1,12.1,41.6,15.8c-2.4,0.5-4.3,1.6-5.8,3.2c-2.6,3-3.2,7.1-3.1,10.4c0,1.4,0.2,2.6,0.3,3.5
		c-8.7-1.1-13.9,4.8-15.7,7.4c-11.2-8.7-21.9-3.5-25.9-0.8c-1.3-12.4-8-18.3-12.3-22.3l-7.5-6.3c-3.2-2.6-4.8-3.4-5.1-11.2
		c0,0-1-22.6-1.2-27.7C329,398.5,367.6,392,370,391.6z"/>
</g>
<path class="st9" d="M361.3,166.1c26.3-17.7,44.6-56.3,40.3-85.8c-5.4-37.4-47.4-62.3-84.8-56.9c-1.3,0.2-2.5,0.4-3.8,0.7
	c-48.5,9-73.3,65.9-70.8,119.4c1.8,39.6-41.5,111-41.5,169.2c0,65.9,55.7,103.6,115.5,103.6c59.9,0,108.7-36.4,108.7-104.1
	C425,257.7,382.6,201,361.3,166.1z"/>
<path class="st10" d="M388.7,121.4c3.2-0.9,6-2.4,8.5-4.4c4.3-12.4,6.1-25.3,4.4-36.7c-1.3-9.2-4.9-17.6-10-25.1
	c-2.3-0.8-4.5-2.4-6.4-4.8c-4.1-5.2-11.1-6.3-16.6-4.8c-4.2,1.1-9.4,8.1-11.2,12.7c-1.8,4.6,0.8,22.6-1,23.3
	c-1.8,0.7-13,8.1-9.7,19.7C351.2,117.2,373.4,125.5,388.7,121.4z"/>
<path class="st10" d="M361.3,166.1c26.3-17.7,44.6-56.3,40.3-85.8c-3.6-24.8-23.2-44.1-47-52.7C371.9,37.7,385,54,387.8,73.8
	c4.3,29.5-3.8,81.2-49.5,101.7c0.2,0.3,0.2,1.7,0.4,1.9c5.1,0.7,13.6-2.3,18-3.3c22.4,35,54.5,83.8,54.5,131.7
	c0,67.7-48.9,104.1-108.7,104.1c-17.3,0-34.3-3.2-49.7-9.2c18.7,10.3,40.8,15.7,63.5,15.7c59.9,0,108.7-36.4,108.7-104.1
	C425,257.7,382.6,201,361.3,166.1z"/>
<path class="st11" d="M306.6,177.5c90.2-32.2,75.6-78.3,75.6-78.3l3.1-52c-16.9-16.6-42.6-25.4-66.4-22c-1.3,0.2-2.5,0.4-3.8,0.7
	c-48.5,9-73.3,65.9-70.8,119.4c1.8,39.6-41.5,111-41.5,169.2c0,58.5,47.6,100.2,117.7,102.2C221.3,408.6,206,213.4,306.6,177.5z"/>
<g>
	<path class="st12" d="M294.6,409.6c-11.2-0.6-22.1-2.6-32.5-5.8c14.8,6.8,31.8,11.1,50.7,12.4c1.2,0,2.3,0.1,3.5,0.1
		c0.4,0,0.7,0,1.1,0C309.2,415.3,301.6,413,294.6,409.6z"/>
	<path class="st12" d="M384.5,61.4l0.8-13.9c-1.7-1.8-3.4-3.5-5.3-5.1c-6.4-5.2-13.8-9.4-21.6-12.4
		C370.2,37.8,379.6,48.6,384.5,61.4z"/>
</g>
<path class="st6" d="M382.3,99.1l2.9-48.7c-4.1-5.2-11.1-6.3-16.6-4.8c-4.2,1.1-9.4,8.1-11.2,12.7c-1.8,4.6,0.8,22.6-1,23.3
	c-1.8,0.7-13,8.1-9.7,19.7c3.7,13,19.3,20.9,33.2,21.1C385.3,108.8,382.3,99.1,382.3,99.1z"/>
<path class="st5" d="M304.5,175.7c90.2-32.2,75.6-78.3,75.6-78.3l3.1-52c-16.9-16.6-42.6-25.4-66.4-22c-1.3,0.2-2.5,0.4-3.8,0.7
	c-48.5,9-73.3,65.9-70.8,119.4c1.8,39.6-41.5,111-41.5,169.2c0,58.5,45.2,101.8,115.3,103.8C216.7,408.4,203.9,211.6,304.5,175.7z"
	/>
<path class="st11" d="M289.8,409.2c-9.5-0.9-18.8-2.7-27.7-5.4c14.8,6.8,31.8,11.1,50.7,12.4c0.5,0,0.9,0,1.4,0
	C305.3,415.3,297.2,412.9,289.8,409.2z"/>
<path class="st11" d="M380.1,97.4l3-49c-4.1-3.3-9.8-3.9-14.5-2.7c-4.2,1.1-9.4,8.1-11.2,12.7c-1.8,4.6-3.5,22.8-5.4,23.5
	c-1.8,0.7-8.6,7.9-5.3,19.5c3.4,12.1,17.3,19.8,30.4,20.9C383.4,107.8,380.1,97.4,380.1,97.4z"/>
<path class="st6" d="M206.8,312.1c0-58.3,43.4-129.7,41.5-169.2c-2.5-53.5,22.3-110.4,70.8-119.4c1.2-0.2,2.5-0.5,3.7-0.6
	c-2,0.1-4,0.3-6.1,0.6c-1.3,0.2-2.5,0.4-3.8,0.7c-48.5,9-73.3,65.9-70.8,119.4c1.8,39.6-41.5,111-41.5,169.2
	c0,58.5,45.2,101.8,115.3,103.8c-4.5-0.4-8.8-1.1-12.9-2.2C244,405.7,206.8,365.1,206.8,312.1z"/>
<path class="st6" d="M247.7,187.9l-14.2,0.6c-3,9.2-6.4,19-10,29C241.8,201.7,247.7,187.9,247.7,187.9z"/>
<g>
	<path d="M316.7,20.1c0,0-3.8,0.7-3.8,0.7c-23,4.3-45.7,19.5-57.6,44.4c-10.7,22.5-15.5,50.5-14.2,78.3c0.8,18.3-8.3,44-17.9,71.2
		c-11.1,31.3-23.6,66.7-23.6,97.9c0,68.8,58.7,104.8,116.8,104.8c30.5,0,58.1-9.6,77.6-27c21.1-18.9,32.3-45.9,32.3-78.3
		c0,0,0,0,0,0c0-46.8-30.8-94.9-53.3-130c0,0-8.9-14.1-10-15.8c23.7-16.5,40.5-49.3,40.5-77.2c0-3.1-0.2-6.1-0.6-9.1
		c-2.6-18.1-13.6-34.2-30.9-45.3C355.4,24.1,335.2,17.4,316.7,20.1z M202,312.7c0-30.8,12.5-66.1,23.5-97.1
		c9.7-27.5,18.9-53.4,18.1-72.2c-1.3-27.3,4.5-54.2,16.1-75.8C272.4,44,291,29.4,313.3,25.2c0,0,3.7-0.6,3.7-0.6
		c34.8-5,77.9,17.8,83.4,55.9c4.2,29.1-12.9,67.8-39,85.3c-0.5,0.4-1.1,0.9-0.8,1.4l10.2,16.3c22.3,34.9,52.9,82.6,52.9,128.7
		c0,31.7-10.9,55.7-31.5,74.1c-19.1,17-46.2,25.6-76.1,25.6C259.4,411.9,202,379.9,202,312.7z"/>
</g>
<path class="st13" d="M301.1,188.2c-18.3-4.2-37.4-20.4-50.1-30.6c-5.5-4.4-7.4-11.5-9.6-12.5c-1.9-0.8-1.4-6.6,1.2-5.1
	c11.5,6.6,39.9,27.3,63.9,34.7c24.4,7.5,46.5,0.3,54-5.8c0,0,0.8-1.3,1.9-1C362.4,167.9,335.7,196.2,301.1,188.2z"/>
<path class="st14" d="M304.1,187.9c-20.4-4.7-42.4-22-54.9-31.9c-3.6-2.8-7.9-4.7-9.3-5.9c-1.2-1.1-7.4-6-8.9-6.2
	c-5.4-2.6-0.5-4.1,6.6-4.4c0.8,0.2,2.8,0.9,3.3,1.1c8,3.6,37.8,25.6,65.5,34.2c24.4,7.5,45.9,0.5,53.5-5.5c0,0,1.4-1.6,2.5-1.3
	C362.4,167.9,338.8,195.9,304.1,187.9z"/>
<path class="st1" d="M362.4,167.9c-1.4,0.5-2.3,0.8-2.3,0.8c-3.7,3-10.9,6.6-20.2,8.7c4.8,0.1,11.6-2.1,15.9-3.2
	C360.1,170.6,362.4,167.9,362.4,167.9z"/>
<g>
	<path class="st3" d="M399.8,81c-3.7,68.8-44.2,91.2-61.3,93.7c-0.6,0.1-1,0.7-0.8,1.2c0.1,0.4,0.7,0.4,1.3,0.3
		c17.7-2.6,35.3-15.7,48.3-35.9c12.4-19.4,18.2-41.9,15.5-60.2C402.6,79.5,399.8,80.4,399.8,81z"/>
</g>
<g>
	<path d="M365.3,42.8c-0.2,0-23.5,4.7-40,3c-1.1-0.1-2.2,0.5-2.5,1.6c-0.1,0.2-6.5,17.9-14.3,28.1c-0.8,1-0.6,2.4,0.3,3.3
		c0.7,0.7,18.6,18.5,36.9,11.8c17.7-6.5,23.7-19.4,24-19.8c0.2-0.4,0.4-0.9,0.3-1.4l-1.7-24.3c0-0.7-0.4-1.3-1-1.8
		C366.7,42.9,365.9,42.7,365.3,42.8z"/>
</g>
<path class="st1" d="M365.7,45.2c0,0-23.7,4.8-40.7,3.1c0,0-6.6,18.1-14.6,28.7c0,0,16.8,15.6,33.9,9.3
	c17.1-6.3,23.2-16.7,23.2-16.7L365.7,45.2z"/>
<path class="st2" d="M344.3,86.3c17.1-6.3,23.2-16.7,23.2-16.7l-1.6-23.3c-0.6,0.7-1.1,1.5-1.6,2.5c-8.5,14.8-34.1,26.9-53.3,28.7
	C313.6,79.8,328.9,92,344.3,86.3z"/>
<path class="st15" d="M365.7,45.2c0,0-23.7,4.8-40.7,3.1c0,0-6.6,18.1-14.6,28.7c0,0,16.8,15.6,33.9,9.3
	c17.1-6.3,23.2-16.7,23.2-16.7L365.7,45.2z"/>
<path class="st16" d="M369.6,42.3c5.5-1.4,12.5-0.4,16.6,4.8c4.1,5.2,9.6,6.3,14.3,5.2c4.7-1.2,32.4-6.6,57.9-17
	c25.5-10.4,25.1-15.5,32.1-16.5c6.1-0.9,15.5,1.9,14.3,13.6c-1.2,11.8-12.6,36.6-32.4,46.7c-19.8,10.1-60.2,14.5-60.2,14.5
	s-7.2,20.3-22.5,24.5c-15.3,4.1-37.5-4.2-42-20c-3.3-11.6,7.9-19,9.7-19.7c1.8-0.7-0.8-18.7,1-23.3
	C360.1,50.5,365.4,43.4,369.6,42.3z"/>
<path class="st7" d="M373.5,88.2c0,0,13.9,5.1,35.5,3.2c22.3-2,52.5-11,62.5-16.1c19.8-10.1,33.4-42.6,28.7-52.7
	c-0.5-1.1,2.3,0.1,3.7,2.8c1.4,2.7,1.2,4.3,0.9,7.3c-1.2,11.8-12.6,36.6-32.4,46.7c-19.8,10.1-60.2,14.5-60.2,14.5
	S379.7,94.9,373.5,88.2z"/>
<g>
	<path class="st7" d="M351.3,104.1c-0.4-0.2-0.8-0.3-1.2-0.4c7.4,12.2,26.1,18.1,39.6,14.5c14.4-3.9,21.8-22.4,22.7-24.7l-16.3,0.5
		C387.4,101.6,371.4,111.9,351.3,104.1z"/>
</g>
<path d="M370.8,92.9c-0.2-0.7-0.4-1.4-0.4-2.2c0-3,1.9-5.5,4.3-5.5c0.6,0,1.1,0.1,1.6,0.4c0.3,0.1,0.4,0,0.2-0.3
	c-0.8-1-1.8-1.6-3-1.6c-2.4,0-4.3,2.4-4.3,5.5c0,1.5,0.5,2.8,1.2,3.8C370.7,93.3,370.9,93.2,370.8,92.9z"/>
<path class="st17" d="M362.4,48.7c0,0,13.4,1.5,18.6,7.2c0,0,1-4.8,6.1-4.5c0,0-4.9-8.5-11-8.2C370,43.6,364.3,44.2,362.4,48.7z"/>
<path class="st17" d="M348.7,96.6c3-5.4,11.7-12.4,17.1-12.1c0,0-4.4-5-10.1-4C350.1,81.5,346.7,93.6,348.7,96.6z"/>
<path class="st7" d="M388.9,50.2c-2.3,0.4-11,0.9-13.1,7.5c-2.1,6.7-8.7,18.1-11.5,20c0,0-0.5,1.3,0.7,1.2
	c5.8-0.5,13.1-16,16.2-21.7c2.9-5.3,9.9-5.3,10.6-5.3L388.9,50.2z"/>
<path class="st17" d="M491.7,19.8c4.8,2.9,10.9,31-25.6,59.9c0,0,15.4-4.5,23.4-16.3c8-11.8,21.4-38.1,10.2-43.2
	C488.5,15,486.9,16.9,491.7,19.8z"/>
<path class="st17" d="M390.9,52.7c0,0-5.4,1.6-5.8,3.8c-0.3,2.2,7.3,3.8,13.8,2.6c7-1.3,69.2-12.6,75.9-30c0,0-42.7,15.9-54.6,17.8
	C408.5,48.9,390.9,52.7,390.9,52.7z"/>
<g>
	<path class="st3" d="M490.3,17.7c-3.2,0.5-5.1,1.8-7.9,3.7c-3.9,2.7-9.8,6.8-24.5,12.8c-22,9-45.7,14.3-54.6,16.3l-3.1,0.7
		c-4.9,1.2-9.6-0.5-13-4.8c-4.8-6.1-12.6-6.6-17.9-5.3c-4.7,1.2-10.2,8.7-12,13.5c-0.6,1.5-0.7,3.9-0.7,6.8c0,2.2,0.1,4.6,0.2,6.9
		c0.1,1.9,0.2,4.1,0.2,5.9c0,1.5-0.1,2.7-0.2,3.2c-2.4,1.2-10.7,7.1-10.7,16.5c0,1.4,0.2,3,0.7,4.6c4.8,16.8,27.7,25.1,43.5,20.8
		c14.3-3.9,21.7-20.9,23.1-24.5c5.8-0.7,41.3-5.1,59.9-14.5c19.1-9.8,31.7-34.4,33-47.6c0.1-0.7,0.1-1.4,0.1-2.1
		c0-4.9-1.9-7.8-3.6-9.4C499,17.8,493.9,17.1,490.3,17.7z M400.8,53.5l3-0.7c9-2,32.8-7.3,55-16.4c14.9-6.1,21-10.3,25-13.1
		c2.7-1.9,4.2-2.9,6.9-3.3c3.1-0.4,7.3,0.1,10.2,2.8c2.3,2.2,3.2,5.4,2.8,9.5c-1.1,10.5-11.8,35.5-31.7,45.7
		c-19.4,9.9-59.4,14.3-59.8,14.4c-0.5,0.1-0.9,0.4-1,0.8c-0.1,0.2-7.2,19.8-21.7,23.7c-14.7,4-36.2-4.1-40.5-19.2
		c-3-10.6,7.3-17.6,9-18.3c1.5-0.6,2-2.9,1.3-11.2c-1.5-16.6,7-23.6,10.7-24.8c3.7-1.2,11.3-0.7,15.4,4.4
		C389.3,53,394.9,55,400.8,53.5z"/>
</g>
<path d="M372.4,87.9c-0.2,0.5,0.3,0.8,0.3,0.8c8.4,7,40.5,6,40.5,6c5.8-0.7,41.3-5.1,59.9-14.5l-1.1-2.2
	c-19.4,9.9-59.4,14.3-59.8,14.4c0,0-28.2,1.7-39.2-4.7C372.9,87.7,372.5,87.6,372.4,87.9z"/>
<path class="st5" d="M253,160.7c-4.1-2.4-15.8-13.8-32.5-3.7c-16.6,10.2-44.3,37-46.2,39.3c-1.9,2.3-6.6,4.5-1.8,13.5
	c4.9,8.9,31.8,39,31.8,39s-12.8,5-21.8,2.9c0,0,6.2,4.5,3.4,10.5c0,0,4.9,2.2,5.7,5.4c2.3-0.3,5-1.7,9.1,1.9c0,0,16-12.1,14.8-21.9
	c-1.2-9.7-17.1-42.5-17.1-42.5s44-6.7,48.1-17.7L253,160.7z"/>
<g>
	<path class="st6" d="M179.3,197.1c1.9-2.3,29.5-29.2,46.2-39.3c5.3-3.2,10-4.3,14.2-4.1c-5.2-1.3-11.7-1.1-19.1,3.4
		c-16.6,10.2-44.3,37-46.2,39.3c-1.9,2.3-6.6,4.5-1.8,13.5c4.9,8.9,31.8,39,31.8,39s-6.9,2.6-14.1,3.3c8.6,0.4,19-2.6,19-2.6
		s-26.9-30-31.8-39C172.7,201.6,177.4,199.4,179.3,197.1z"/>
</g>
<path class="st7" d="M208.8,249.4c3.3-0.4,6.8-1.7,6.8-1.7c1.2,9.7-14.8,21.9-14.8,21.9c-4.1-3.7-6.8-2.2-9.1-1.9
	c-0.8-3.2-5.7-5.4-5.7-5.4c2.8-6-3.4-10.5-3.4-10.5c8.9,2,21.8-2.9,21.8-2.9S205.4,249.8,208.8,249.4z"/>
<path class="st4" d="M198.7,267.8c-2.6-2-6.3-0.2-6.3-0.2s-2.1-3.9-4.6-5.4c1.6-0.2,10-1.4,16.2-4.9c6.2-3.6,8.3-3.3,8.3-3.3
	S211.6,259.1,198.7,267.8z"/>
<path d="M348.2,61.3c-1.6-2.7-5.2-3.6-7.9-2c-0.6,0.3-1,0.8-1.4,1.2c-2.4,2.1-7.3,6.3-10.1,8.4c-3.8,2.8-1.3,2.1,1.9,0.6
	c2.8-1.3,5.8-3,7.5-2.4c0,0.1,0.1,0.1,0.1,0.2c1.6,2.7,5.2,3.6,7.9,2C348.9,67.6,349.8,64.1,348.2,61.3z"/>
<g>
	<path d="M327.5,202.7c0,0-9.5,28.9-9.9,30.1c-1.3,0.3-33.4,8-33.4,8s26.7,19.5,27.7,20.2c-0.1,1.3-2.8,34.2-2.8,34.2
		s26.8-19.4,27.8-20.1c1.2,0.5,31.7,13.2,31.7,13.2s-10.1-31.4-10.5-32.7c0.8-1,22.3-26.1,22.3-26.1s-33-0.1-34.3-0.1
		c-0.7-1.1-17.9-29.3-17.9-29.3L327.5,202.7z"/>
</g>
<path class="st2" d="M320.3,236.4l0.6-0.1c0,0,7.2-22.1,8.5-25.9c2.1,3.4,14.2,23.3,14.2,23.3s23.3,0,27.2,0.1
	c-2.6,3-17.7,20.7-17.7,20.7s7.1,22.1,8.4,25.9c-3.7-1.5-25.2-10.5-25.2-10.5s-18.8,13.6-22.1,16c0.3-4,2.2-27.2,2.2-27.2
	s-18.8-13.7-22-16.1C298.2,241.6,320.3,236.4,320.3,236.4z"/>
<path d="M478.9,35.2c0,1.2-2.6,4.5-4,4.5c-1.4,0-1.1-3.3-1.1-4.5s1.1-2.2,2.5-2.2C477.8,32.9,478.9,33.9,478.9,35.2z"/>
<g>
	<path d="M220.1,154.6c-16.3,10.4-48.5,41.1-48.5,41.1c-1.4,1.4-3.2,3.2-3.2,6.5c0,1.9,0.6,4.3,2.3,7.3c4.4,8,26.4,32.8,31.7,38.8
		c-3.7,1.2-12.7,3.8-19.4,2.3c-0.6-0.1-1.1,0.2-1.4,0.7c-0.2,0.5-0.1,1.1,0.4,1.5c0.2,0.2,7,3.7,3,9c-0.2,0.3-0.2,0.6,0,0.9
		c0.1,0.3,0.3,0.6,0.6,0.7c2.8,0.4,4.6,1.4,5,4.6c0.1,0.6,0.3,1.9,2.6,0.7c3.3-1.7,3.9-0.8,6.9,1.9c0.4,0.4,1.1,0.4,1.6,0.1
		c0.6-0.5,16.2-12.1,16.2-22.2c0-0.4,0-0.8-0.1-1.2c-1.1-8.8-14.3-34.5-17.4-41c8.8-1.4,43.3-5.6,47.4-18.2c0-0.1,0.3-1.1-0.7-1.6
		c-0.6-0.3-1.3,0.1-1.6,0.7c-3.1,8.4-35.1,15.1-47.1,16.9c-0.4,0.1-0.7,0.3-0.9,0.6c-0.1,0.2-0.1,0.4-0.1,0.6c0,0.2,0,0.4,0.1,0.5
		c0.2,0.3,17.8,36,17.8,42.9c0.1,7.6-10.5,17.4-14.4,19.4c-3.4-2.7-6.1-2.1-8.1-1.7c0,0-0.2,0.1-0.2-0.1c-1.1-2.3-3.6-3.9-5-4.7
		c0.3-0.8,0.4-1.7,0.4-2.5c0-2.3-1-4.2-2.1-5.8c8.6,0.5,18.5-3.2,19-3.4c0.4-0.1,0.7-0.5,0.7-0.9c0.1-0.4,0-0.8-0.3-1.1
		c-0.3-0.3-26.8-30-31.6-38.7c-3.7-6.8-1.5-9,0.5-10.9l1.1-1.2c1.5-1.9,29-28.7,45.8-39c13.9-8.5,24.3-1.2,29.3,2.4l1.9,1.3
		c0.6,0.4,1.1,0.4,1.5-0.1c0.4-0.6,0.2-1.2-0.3-1.6l-1.8-1.5C246.4,154.7,238.3,143,220.1,154.6z"/>
</g>
<path d="M199.1,142.2c-0.7,0.2-3.5,1-4.3,1.2c23.4-0.7,39.5,7.1,43.2,9.6c2.2,0.3,3.6-0.3,5.1-1.2
	C239.4,149.3,222.9,141.3,199.1,142.2z"/>
</svg>
